<?xml version="1.0" encoding="UTF-8" standalone="no"?>
<svg
   xmlns:dc="http://purl.org/dc/elements/1.1/"
   xmlns:cc="http://creativecommons.org/ns#"
   xmlns:rdf="http://www.w3.org/1999/02/22-rdf-syntax-ns#"
   xmlns:svg="http://www.w3.org/2000/svg"
   xmlns="http://www.w3.org/2000/svg"
   xmlns:sodipodi="http://sodipodi.sourceforge.net/DTD/sodipodi-0.dtd"
   xmlns:inkscape="http://www.inkscape.org/namespaces/inkscape"
   inkscape:version="1.0 (4035a4fb49, 2020-05-01)"
   sodipodi:docname="FavMowFo.svg"
   id="svg8"
   version="1.1"
   viewBox="0 0 75 85"
   height="85mm"
   width="75mm">
  <defs
     id="defs2" />
  <sodipodi:namedview
     inkscape:window-maximized="1"
     inkscape:window-y="-9"
     inkscape:window-x="-9"
     inkscape:window-height="1001"
     inkscape:window-width="1920"
     units="mm"
     showgrid="false"
     inkscape:document-rotation="0"
     inkscape:current-layer="layer2"
     inkscape:document-units="mm"
     inkscape:cy="240.73372"
     inkscape:cx="536.88961"
     inkscape:zoom="0.98994949"
     inkscape:pageshadow="2"
     inkscape:pageopacity="0.0"
     borderopacity="1.0"
     bordercolor="#666666"
     pagecolor="#ffffff"
     id="base" />
  <metadata
     id="metadata5">
    <rdf:RDF>
      <cc:Work
         rdf:about="">
        <dc:format>image/svg+xml</dc:format>
        <dc:type
           rdf:resource="http://purl.org/dc/dcmitype/StillImage" />
        <dc:title></dc:title>
      </cc:Work>
    </rdf:RDF>
  </metadata>
  <g
     inkscape:label="Grass"
     id="layer2"
     inkscape:groupmode="layer">
    <g
       transform="matrix(0.1148471,0,0,0.09120038,57.602165,57.251054)"
       id="g272">
      <path
         style="fill:#43a838"
         d="m 10.367,345.111 h 472.834 c 2.927,0 5.267,-2.39 5.206,-5.316 -0.432,-20.84 -0.317,-97.235 23.352,-126.091 0.662,-0.807 -0.154,-1.968 -1.139,-1.622 -11.274,3.959 -44.881,17.583 -53.245,41.786 -0.333,0.964 -1.709,0.915 -1.973,-0.07 l -13.043,-48.617 c -0.248,-0.926 -1.513,-1.048 -1.933,-0.186 l -14.574,29.865 c -0.346,0.71 -1.328,0.787 -1.781,0.14 l -27.796,-39.706 c -0.523,-0.748 -1.688,-0.503 -1.866,0.392 l -12.897,64.809 c -0.216,1.085 -1.754,1.123 -2.022,0.05 l -23.274,-92.874 c -0.259,-1.033 -1.72,-1.051 -2.005,-0.025 l -19.578,70.479 c -0.26,0.936 -1.55,1.032 -1.946,0.145 l -22.624,-50.716 c -0.392,-0.878 -1.665,-0.796 -1.94,0.125 l -18.144,60.68 c -0.303,1.015 -1.754,0.975 -2.001,-0.055 l -10.692,-44.558 c -0.234,-0.974 -1.577,-1.083 -1.964,-0.159 l -29.619,70.63 c -0.355,0.846 -1.553,0.848 -1.911,0.003 l -39.636,-93.613 c -0.459,-1.085 -2.085,-0.692 -1.988,0.482 1.484,18.054 3.633,67.693 -14.796,90.436 -0.514,0.634 -1.517,0.48 -1.794,-0.287 l -19.482,-53.925 c -0.342,-0.946 -1.695,-0.9 -1.972,0.067 l -16.229,56.768 c -0.253,0.884 -1.442,1.032 -1.896,0.233 -5.839,-10.302 -30.02,-56.655 -17.957,-98.3 0,0 -31.616,41.527 -32.692,72.12 -0.04,1.127 -1.604,1.373 -2.002,0.318 L 80.259,213.814 c -0.353,-0.937 -1.698,-0.878 -1.968,0.086 l -15.933,56.826 c -0.307,1.095 -1.904,0.971 -2.028,-0.16 -1.748,-15.918 -10.893,-60.624 -58.72,-92.83 -0.812,-0.547 -1.857,0.249 -1.557,1.181 4.632,14.418 23.834,81.942 5.26,159.774 -0.783,3.274 1.688,6.42 5.054,6.42 z"
         id="path202" />
      <g
         id="g212">
	<path
   style="fill:#338727"
   d="m 488.402,339.8 c 0.063,2.916 -2.281,5.312 -5.197,5.312 H 10.365 c -3.364,0 -5.832,-3.145 -5.051,-6.416 2.104,-8.811 3.718,-17.497 4.926,-25.985 0.042,0.01 0.083,0.01 0.125,0.01 h 472.84 c 2.916,0 4.921,-0.156 4.921,-0.156 0.001,7.245 0.08,17.611 0.276,27.235 z"
   id="path204" />

	<circle
   style="fill:#338727"
   cx="96.578003"
   cy="288.51801"
   r="8.8999996"
   id="circle206" />

	<circle
   style="fill:#338727"
   cx="121.458"
   cy="313.39801"
   r="8.8999996"
   id="circle208" />

	<circle
   style="fill:#338727"
   cx="418.478"
   cy="275.578"
   r="8.8999996"
   id="circle210" />

</g>
      <g
         id="g214">
</g>
      <g
         id="g216">
</g>
      <g
         id="g218">
</g>
      <g
         id="g220">
</g>
      <g
         id="g222">
</g>
      <g
         id="g224">
</g>
      <g
         id="g226">
</g>
      <g
         id="g228">
</g>
      <g
         id="g230">
</g>
      <g
         id="g232">
</g>
      <g
         id="g234">
</g>
      <g
         id="g236">
</g>
      <g
         id="g238">
</g>
      <g
         id="g240">
</g>
      <g
         id="g242">
</g>
    </g>
    <path
       sodipodi:open="true"
       d="m 63.393788,65.061746 a 6.8996482,11.841237 0 0 1 1.196977,16.224735 6.8996482,11.841237 0 0 1 -9.388359,2.802338 6.8996482,11.841237 0 0 1 -2.065259,-15.965562 6.8996482,11.841237 0 0 1 9.197354,-4.278911"
       sodipodi:arc-type="arc"
       sodipodi:end="5.2099379"
       sodipodi:start="5.3949737"
       sodipodi:ry="11.841237"
       sodipodi:rx="6.8996482"
       sodipodi:cy="74.249893"
       sodipodi:cx="59.041485"
       sodipodi:type="arc"
       style="fill:#ffffff;stroke-width:0.364545"
       id="path274" />
    <g
       transform="matrix(-0.03810454,0,0,0.03566041,25.451486,-0.14362891)"
       id="g339">
      <g
         id="g282">
	<g
   id="g280">
		<path
   d="m 376.365,136.025 c 8.436,-2.347 14.635,-10.066 14.635,-19.25 0,-11.046 -8.954,-20 -20,-20 -11.046,0 -20,8.954 -20,20 0,5.498 2.221,10.476 5.812,14.091 -12.857,-2.678 -26.172,-4.091 -39.812,-4.091 -46.882,0 -92.195,16.882 -127.594,47.536 -32.449,28.099 -54.681,66.043 -63.332,107.706 L 0,312.497 v 38.019 L 19.384,369.9 c 30.217,30.217 69.909,45.326 109.602,45.326 39.693,0 79.384,-15.109 109.602,-45.326 l 22.252,-22.252 c 75.559,18.017 153.167,27.281 231.965,27.6 l 12.136,0.049 2.582,-11.858 c 2.972,-13.647 4.479,-27.666 4.479,-41.666 C 512,234.943 454.948,161.198 376.365,136.025 Z M 270.861,203.029 C 251.326,234.063 241,269.938 241,306.774 c 0,1.639 0.041,3.281 0.082,4.923 -28.641,-7.691 -56.96,-16.682 -84.901,-26.99 7.796,-33.896 26.283,-64.701 52.864,-87.718 28.505,-24.685 64.617,-38.803 102.24,-40.105 -15.735,13.103 -29.408,28.645 -40.424,46.145 z"
   id="path278" />

	</g>

</g>
      <g
         id="g284">
</g>
      <g
         id="g286">
</g>
      <g
         id="g288">
</g>
      <g
         id="g290">
</g>
      <g
         id="g292">
</g>
      <g
         id="g294">
</g>
      <g
         id="g296">
</g>
      <g
         id="g298">
</g>
      <g
         id="g300">
</g>
      <g
         id="g302">
</g>
      <g
         id="g304">
</g>
      <g
         id="g306">
</g>
      <g
         id="g308">
</g>
      <g
         id="g310">
</g>
      <g
         id="g312">
</g>
    </g>
    <g
       id="g473"
       transform="matrix(0.1148471,0,0,0.09120038,57.220319,52.093881)">
      <path
         id="path431"
         d="m 10.367,345.111 h 472.834 c 2.927,0 5.267,-2.39 5.206,-5.316 -0.432,-20.84 -0.317,-97.235 23.352,-126.091 0.662,-0.807 -0.154,-1.968 -1.139,-1.622 -11.274,3.959 -44.881,17.583 -53.245,41.786 -0.333,0.964 -1.709,0.915 -1.973,-0.07 l -13.043,-48.617 c -0.248,-0.926 -1.513,-1.048 -1.933,-0.186 l -14.574,29.865 c -0.346,0.71 -1.328,0.787 -1.781,0.14 l -27.796,-39.706 c -0.523,-0.748 -1.688,-0.503 -1.866,0.392 l -12.897,64.809 c -0.216,1.085 -1.754,1.123 -2.022,0.05 l -23.274,-92.874 c -0.259,-1.033 -1.72,-1.051 -2.005,-0.025 l -19.578,70.479 c -0.26,0.936 -1.55,1.032 -1.946,0.145 l -22.624,-50.716 c -0.392,-0.878 -1.665,-0.796 -1.94,0.125 l -18.144,60.68 c -0.303,1.015 -1.754,0.975 -2.001,-0.055 l -10.692,-44.558 c -0.234,-0.974 -1.577,-1.083 -1.964,-0.159 l -29.619,70.63 c -0.355,0.846 -1.553,0.848 -1.911,0.003 l -39.636,-93.613 c -0.459,-1.085 -2.085,-0.692 -1.988,0.482 1.484,18.054 3.633,67.693 -14.796,90.436 -0.514,0.634 -1.517,0.48 -1.794,-0.287 l -19.482,-53.925 c -0.342,-0.946 -1.695,-0.9 -1.972,0.067 l -16.229,56.768 c -0.253,0.884 -1.442,1.032 -1.896,0.233 -5.839,-10.302 -30.02,-56.655 -17.957,-98.3 0,0 -31.616,41.527 -32.692,72.12 -0.04,1.127 -1.604,1.373 -2.002,0.318 L 80.259,213.814 c -0.353,-0.937 -1.698,-0.878 -1.968,0.086 l -15.933,56.826 c -0.307,1.095 -1.904,0.971 -2.028,-0.16 -1.748,-15.918 -10.893,-60.624 -58.72,-92.83 -0.812,-0.547 -1.857,0.249 -1.557,1.181 4.632,14.418 23.834,81.942 5.26,159.774 -0.783,3.274 1.688,6.42 5.054,6.42 z"
         style="fill:#43a838" />
      <g
         id="g441">
	<path
   id="path433"
   d="m 488.402,339.8 c 0.063,2.916 -2.281,5.312 -5.197,5.312 H 10.365 c -3.364,0 -5.832,-3.145 -5.051,-6.416 2.104,-8.811 3.718,-17.497 4.926,-25.985 0.042,0.01 0.083,0.01 0.125,0.01 h 472.84 c 2.916,0 4.921,-0.156 4.921,-0.156 0.001,7.245 0.08,17.611 0.276,27.235 z"
   style="fill:#338727" />

	<circle
   id="circle435"
   r="8.8999996"
   cy="288.51801"
   cx="96.578003"
   style="fill:#338727" />

	<circle
   id="circle437"
   r="8.8999996"
   cy="313.39801"
   cx="121.458"
   style="fill:#338727" />

	<circle
   id="circle439"
   r="8.8999996"
   cy="275.578"
   cx="418.478"
   style="fill:#338727" />

</g>
      <g
         id="g443">
</g>
      <g
         id="g445">
</g>
      <g
         id="g447">
</g>
      <g
         id="g449">
</g>
      <g
         id="g451">
</g>
      <g
         id="g453">
</g>
      <g
         id="g455">
</g>
      <g
         id="g457">
</g>
      <g
         id="g459">
</g>
      <g
         id="g461">
</g>
      <g
         id="g463">
</g>
      <g
         id="g465">
</g>
      <g
         id="g467">
</g>
      <g
         id="g469">
</g>
      <g
         id="g471">
</g>
    </g>
    <path
       id="path475"
       style="fill:#ffffff;stroke-width:0.364545"
       sodipodi:type="arc"
       sodipodi:cx="59.041485"
       sodipodi:cy="74.249893"
       sodipodi:rx="6.8996482"
       sodipodi:ry="11.841237"
       sodipodi:start="5.3949737"
       sodipodi:end="5.2099379"
       sodipodi:arc-type="arc"
       d="m 63.393788,65.061746 a 6.8996482,11.841237 0 0 1 1.196977,16.224735 6.8996482,11.841237 0 0 1 -9.388359,2.802338 6.8996482,11.841237 0 0 1 -2.065259,-15.965562 6.8996482,11.841237 0 0 1 9.197354,-4.278911"
       sodipodi:open="true" />
  </g>
  <g
     style="display:inline"
     id="layer1"
     inkscape:groupmode="layer"
     inkscape:label="Layer 1">
    <g
       id="g563"
       transform="matrix(0.13072824,0,0,0.15009329,-1.0778004,7.2507912)">
      <g
         id="g519">
	<g
   id="g517">
		<path
   id="path515"
   d="m 226.507,216.026 -74.851,-11.99 -24.68,-54.146 36.791,40.874 v -55.647 c 0,-16.945 -13.737,-30.682 -30.682,-30.682 H 78.371 c -16.945,0 -30.682,13.737 -30.682,30.682 0,0 -1.309,147.1 -0.749,151.613 2.182,17.603 10.679,86.141 10.679,86.141 l -43.075,104.55 c -5.266,12.784 0.827,27.415 13.61,32.682 12.779,5.267 27.415,-0.825 32.682,-13.609 l 45.582,-110.635 c 1.643,-3.988 2.229,-8.335 1.698,-12.617 l -7.833,-63.183 h 19.443 l 7.049,53.972 -24.934,117.743 c -2.864,13.525 5.778,26.812 19.304,29.677 13.525,2.864 26.812,-5.78 29.677,-19.304 L 176.643,370.22 c 0.586,-2.77 0.699,-5.62 0.332,-8.429 l -12.518,-95.84 c -0.012,-0.091 -0.029,-0.18 -0.042,-0.271 l -33.667,-5.393 c -17.285,-2.769 -27.317,-16.863 -28.829,-24.44 l -12.524,-62.732 27.254,59.792 c 2.933,6.433 8.993,11.351 16.475,12.55 26.857,4.301 59.61,9.548 86.453,13.847 0.001,0 0.002,0 0.003,0 11.98,1.918 23.193,-6.253 25.101,-18.173 1.913,-11.952 -6.224,-23.191 -18.174,-25.105 z" />

	</g>

</g>
      <g
         id="g525">
	<g
   id="g523">
		<circle
   id="circle521"
   r="45.417999"
   cy="45.417999"
   cx="105.971" />

	</g>

</g>
      <g
         id="g531">
	<g
   id="g529">
		<path
   id="path527"
   d="m 494.522,447.506 v -10.405 c 0,-4.408 -2.738,-8.351 -6.867,-9.893 C 316.944,363.523 328.107,367.342 325.226,367.355 L 259.398,244.069 c -1.58,8.974 -6.371,16.81 -13.161,22.304 l 58.53,109.619 -18.412,8.789 -58.967,-110.439 c -6.63,0.784 -9.743,-0.133 -26.581,-2.831 l 66.498,124.541 c -1.051,1.889 -0.163,-1.253 -11.077,46.649 -4.829,7.105 -7.656,15.677 -7.656,24.896 0,24.484 19.918,44.402 44.402,44.402 21.088,0 38.778,-14.782 43.282,-34.526 h 75.408 c 4.504,19.744 22.193,34.526 43.281,34.526 24.484,0 44.403,-19.918 44.403,-44.402 0,-7.228 -1.747,-14.053 -4.826,-20.091 z m -201.547,41.273 c -11.68,0 -21.182,-9.502 -21.182,-21.182 0,-11.68 9.502,-21.182 21.182,-21.182 11.68,0 21.183,9.502 21.183,21.182 -0.001,11.68 -9.503,21.182 -21.183,21.182 z m 161.97,0 c -11.679,0 -21.181,-9.502 -21.181,-21.182 0,-11.68 9.502,-21.182 21.181,-21.182 11.681,0 21.183,9.502 21.183,21.182 0.001,11.68 -9.503,21.182 -21.183,21.182 z" />

	</g>

</g>
      <g
         id="g533">
</g>
      <g
         id="g535">
</g>
      <g
         id="g537">
</g>
      <g
         id="g539">
</g>
      <g
         id="g541">
</g>
      <g
         id="g543">
</g>
      <g
         id="g545">
</g>
      <g
         id="g547">
</g>
      <g
         id="g549">
</g>
      <g
         id="g551">
</g>
      <g
         id="g553">
</g>
      <g
         id="g555">
</g>
      <g
         id="g557">
</g>
      <g
         id="g559">
</g>
      <g
         id="g561">
</g>
    </g>
  </g>
</svg>
